<svg width="11" height="11" viewBox="0 0 11 11" fill="none" xmlns="http://www.w3.org/2000/svg">
<g clip-path="url(#clip0_922_50)">
<path d="M10.083 9.625H7.33301C6.84678 9.625 6.38046 9.43185 6.03665 9.08803C5.69283 8.74421 5.49967 8.2779 5.49967 7.79167L5.49967 1.375C5.49967 1.73967 5.64454 2.08941 5.9024 2.34727C6.16027 2.60513 6.51 2.75 6.87467 2.75H10.083V9.625Z" stroke="black" stroke-width="1.1" stroke-linecap="round" stroke-linejoin="round"/>
<path d="M0.916667 9.625H3.66667C4.1529 9.625 4.61921 9.43185 4.96303 9.08803C5.30685 8.74421 5.5 8.2779 5.5 7.79167L5.5 1.375C5.5 1.73967 5.35513 2.08941 5.09727 2.34727C4.83941 2.60513 4.48967 2.75 4.125 2.75L0.916667 2.75L0.916667 9.625Z" stroke="black" stroke-width="1.1" stroke-linecap="round" stroke-linejoin="round"/>
</g>
<defs>
<clipPath id="clip0_922_50">
<rect width="11" height="11" fill="white" transform="matrix(-1 0 0 -1 11 11)"/>
</clipPath>
</defs>
</svg>
