<svg width="25" height="25" viewBox="0 0 25 25" fill="none" xmlns="http://www.w3.org/2000/svg">
<g clip-path="url(#clip0_902_5)">
<path d="M17.7744 21.6992V19.6992C17.7744 18.6384 17.353 17.6209 16.6028 16.8708C15.8527 16.1206 14.8353 15.6992 13.7744 15.6992H5.77441C4.71355 15.6992 3.69613 16.1206 2.94599 16.8708C2.19584 17.6209 1.77441 18.6384 1.77441 19.6992V21.6992" stroke="black" stroke-width="2" stroke-linecap="round" stroke-linejoin="round"/>
<path d="M9.77441 11.6992C11.9836 11.6992 13.7744 9.90836 13.7744 7.69922C13.7744 5.49008 11.9836 3.69922 9.77441 3.69922C7.56527 3.69922 5.77441 5.49008 5.77441 7.69922C5.77441 9.90836 7.56527 11.6992 9.77441 11.6992Z" stroke="black" stroke-width="2" stroke-linecap="round" stroke-linejoin="round"/>
<path d="M23.7744 21.7001V19.7001C23.7738 18.8138 23.4788 17.9529 22.9358 17.2524C22.3928 16.5519 21.6325 16.0516 20.7744 15.8301" stroke="black" stroke-width="2" stroke-linecap="round" stroke-linejoin="round"/>
<path d="M16.7744 3.83008C17.6348 4.05038 18.3975 4.55078 18.9421 5.25239C19.4867 5.954 19.7823 6.81691 19.7823 7.70508C19.7823 8.59325 19.4867 9.45616 18.9421 10.1578C18.3975 10.8594 17.6348 11.3598 16.7744 11.5801" stroke="black" stroke-width="2" stroke-linecap="round" stroke-linejoin="round"/>
</g>
<defs>
<clipPath id="clip0_902_5">
<rect width="24" height="24" fill="white" transform="translate(0.774414 0.699219)"/>
</clipPath>
</defs>
</svg>
