<svg width="100" height="33" viewBox="0 0 100 33" fill="none" xmlns="http://www.w3.org/2000/svg">
<path d="M62.9114 14.3999H57.8519C56.8291 14.3999 56 15.229 56 16.2518V21.3113C56 22.334 56.8291 23.1631 57.8519 23.1631H62.9114C63.9341 23.1631 64.7632 22.334 64.7632 21.3113V16.2518C64.7632 15.229 63.9341 14.3999 62.9114 14.3999Z" fill="#3452FF"/>
<path d="M13.999 13.6892C12.1606 14.3583 10.472 15.383 9.02966 16.7047C7.58724 18.0264 6.41936 19.6192 5.5925 21.3923C4.76575 23.1654 4.29628 25.0839 4.21093 27.0385C4.12564 28.9929 4.42607 30.9451 5.0952 32.7835L13.3316 29.7857C13.0562 29.0289 12.9325 28.2254 12.9676 27.4207C13.0027 26.6162 13.196 25.8265 13.5364 25.0966C13.8767 24.3667 14.3575 23.711 14.9512 23.167C15.545 22.6228 16.24 22.2011 16.9968 21.9256L13.999 13.6892Z" fill="#3452FF"/>
<path d="M49.1119 10.2347L46.1147 2L13.9993 13.6891L16.9965 21.9238L49.1119 10.2347Z" fill="#3452FF"/>
<path d="M84.1765 31.8975C86.1329 31.8975 88.0701 31.5121 89.8775 30.7635C91.685 30.0148 93.3272 28.9175 94.7106 27.5342C96.094 26.1507 97.1913 24.5085 97.94 22.701C98.6886 20.8936 99.074 18.9564 99.074 17H90.309C90.309 17.8054 90.1504 18.6028 89.8421 19.3469C89.534 20.0908 89.0822 20.7669 88.5128 21.3363C87.9433 21.9057 87.2673 22.3575 86.5233 22.6657C85.7793 22.9739 84.9818 23.1325 84.1765 23.1325V31.8975Z" fill="#3452FF"/>
<path d="M50 23.1342V31.8975L84.1766 31.8975V23.1342L50 23.1342Z" fill="#3452FF"/>
<path d="M64.2445 5.6329L57.5315 0L34.9999 26.8521L41.713 32.485L64.2445 5.6329Z" fill="#3452FF"/>
</svg>
